PathFileType	4	(X/Y/Z)	C:/Users/beibeiliu/ov580/test_trc/User3\sequence.40_training_dense_right.trc
DataRate	CameraRate	NumFrames	NumMarkers	Units	OrigDataRate	OrigDataStartFrame	OrigNumFrames
120	120	18	19	mm	120	37	72
Frame#	Time	ThumbCMC			ThumbMCP			ThumbIP			ThumbTip			IndexMCP			IndexPIP			IndexTip			MiddleMCP			MiddlePIP			MiddleTip			RingMCP			RingPIP			RingTip			PinkyMCP			PinkyPIP			PinkyTip			BackHand1			BackHand2			BackHand3	
		X0	Y0	Z0	X1	Y1	Z1	X2	Y2	Z2	X3	Y3	Z3	X4	Y4	Z4	X5	Y5	Z5	X6	Y6	Z6	X7	Y7	Z7	X8	Y8	Z8	X9	Y9	Z9	X10	Y10	Z10	X11	Y11	Z11	X12	Y12	Z12	X13	Y13	Z13	X14	Y14	Z14	X15	Y15	Z15	X16	Y16	Z16	X17	Y17	Z17	X18	Y18	Z18	
36	0.3	172.209	20.3715	20.2421	151.528	43.0572	2.78713	128.534	53.4084	-21.8745	107.888	49.2726	-32.3118	170.877	2.24295	-54.6231	166.533	16.0851	-78.2857	152.484	26.3067	-96.3473	158.746	-14.0567	-59.5391	146.609	-7.29557	-83.6449	128.985	11.6393	-109.137	141.405	-29.0502	-45.8688	129.634	-23.5024	-74.2378	112.454	-10.1234	-92.9934	122.295	-39.4392	-25.4875	105.966	-38.5077	-50.9891	94.4371	-27.4803	-63.8019	157.466	-36.8171	3.61127	162.705	-41.3137	28.9872	182.505	-18.4718	15.2716	
37	0.308333	166.606	25.4073	25.4189	143.4	47.8897	2.94097	118.255	51.6325	-22.389	98.531	40.5356	-32.7104	168.917	10.9366	-51.8685	161.018	20.3787	-76.8852	149.616	36.6865	-96.9358	158.243	-9.80363	-59.0097	145.286	-3.10981	-84.7275	124.73	13.7182	-107.557	144.091	-25.1398	-46.6317	131.447	-18.541	-75.3855	115.119	-5.85239	-91.7543	124.133	-36.966	-29.8834	109.073	-33.1796	-52.651	93.9009	-16.9823	-65.3746	160.339	-33.8163	3.94078	163.048	-39.3211	28.5607	181.68	-10.1769	10.3383	
38	0.316667	166.63	28.9034	26.074	141.734	46.8255	0.468341	117.335	44.8778	-24.575	98.7155	31.9364	-31.9105	167.909	14.9187	-54.839	160.397	27.0671	-78.622	143.732	40.755	-95.582	156.333	-8.50179	-56.7381	147.641	2.55186	-83.9871	125.307	22.2611	-106.247	142.723	-17.4182	-50.0166	129.34	-13.6918	-71.9616	110.272	5.78749	-86.9242	122.639	-27.2074	-29.5948	105.857	-21.0782	-47.9064	91.6607	0.320578	-55.6811	158.125	-28.0923	4.12137	163.418	-32.3585	28.8297	181.998	-8.20241	11.8719	
39	0.325	169.439	32.6736	24.972	142.597	43.9001	-4.81181	120.125	38.1088	-24.7895	101.591	26.1803	-31.2573	172.146	15.8098	-49.3937	164.57	26.984	-76.947	147.341	43.0681	-94.5248	159.757	-5.32286	-59.0504	145.204	3.36265	-86.2092	122.105	23.4811	-103.29	139.26	-17.1123	-50.423	126.695	-6.98034	-72.5949	105.933	14.4753	-82.3247	122.291	-20.3294	-31.7061	101.951	-9.61184	-47.3802	87.8529	14.3707	-48.1783	156.167	-29.326	3.13602	160.182	-32.8971	32.7818	183.844	-6.86149	11.9511	
40	0.333333	170.179	30.2748	22.3726	144.016	43.4302	-2.00275	120.81	40.3851	-23.8847	103.763	22.7572	-32.0752	174.076	14.1852	-50.5934	162.518	24.2043	-76.313	144.185	42.2311	-94.2442	158.227	-9.70512	-56.2346	148.919	1.53215	-82.3905	124.604	22.6012	-102.024	139.471	-18.9188	-45.2644	126.863	-8.06727	-70.9503	105.274	10.2401	-80.3518	118.098	-23.4939	-30.126	99.8704	-9.51383	-44.6975	86.0833	12.7019	-45.5345	159.029	-28.5694	2.86802	162.843	-34.5634	32.0948	181.284	-8.89744	14.2446	
41	0.341667	169.273	28.7615	23.9583	144.99	46.8608	0.365494	122.011	40.2281	-23.3853	102.073	24.708	-33.5533	175.348	15.5681	-50.9317	163.561	26.1398	-76.6483	148.994	41.8599	-92.0964	160.742	-7.64982	-59.2145	146.624	0.166145	-83.6823	122.543	20.4643	-101.826	140.972	-19.7096	-48.8219	130.593	-10.872	-70.3611	104.733	9.15477	-82.1177	120.35	-26.7875	-27.7606	103.096	-11.3131	-46.9957	86.5793	5.61624	-47.6855	160.657	-31.3796	5.25508	161.873	-33.0161	30.2731	184.704	-6.42788	15.3953	
42	0.35	168.791	29.4389	22.5538	145.526	48.3018	1.5158	121.497	47.534	-23.7083	101.31	32.5889	-35.4642	171.374	15.5349	-54.1442	162.837	26.4104	-75.2724	147.553	41.7223	-92.1609	158.819	-7.92656	-59.7065	148.39	0.233707	-82.3755	126.292	20.6513	-103.356	144.845	-17.0303	-47.6239	130.788	-11.6112	-72.7467	112.9	4.6775	-86.0364	121.276	-29.4754	-28.5093	104.271	-22.3995	-46.6394	86.5433	-1.09584	-54.4677	161.567	-29.8669	4.77957	162.288	-33.4279	29.7102	183.722	-5.04565	11.8047	
43	0.358333	171.773	32.5418	22.7663	147.885	48.2278	0.804267	125.339	50.551	-21.1455	106.116	38.9917	-32.0778	172.945	14.0622	-50.0644	164.864	30.923	-79.0418	151.295	43.8584	-93.0608	160.23	-5.64715	-54.8622	151.036	5.70337	-84.228	130.644	23.6348	-102.834	144.949	-18.0227	-46.3088	130.528	-9.10718	-74.1176	109.686	4.23801	-85.848	121.099	-28.4048	-30.5276	106.763	-18.6332	-48.6624	88.5795	-0.0200743	-55.7402	161.153	-28.4009	4.96192	163.215	-32.8638	29.845	182.058	-7.9678	15.6869	
44	0.366667	172.424	26.3133	20.1147	152.751	45.3585	-0.329165	129.659	46.9366	-22.1789	108.481	35.99	-33.6505	176.019	11.9742	-55.0148	169.325	25.3794	-76.6079	151.108	39.1343	-94.3952	160.634	-7.42643	-57.5659	147.792	1.76292	-84.2812	129.695	24.541	-102.395	142.083	-17.8156	-49.3165	129.321	-7.38364	-73.8414	109.808	10.5376	-82.7337	122.5	-21.3409	-29.8809	103.604	-11.2413	-47.3546	93.8052	10.5235	-53.8908	159.11	-31.43	1.41975	160.138	-32.7821	34.5823	184.698	-9.87615	16.0877	
45	0.375	177.599	22.012	20.5048	157.578	41.7669	-4.98007	134.745	44.8319	-27.4032	111.078	33.3559	-37.3932	177.168	3.17591	-50.6218	172.977	19.8189	-76.9742	157.781	37.802	-95.5379	161.908	-11.8805	-56.3436	152.644	-1.11568	-82.3906	131.428	23.585	-100.6	143.445	-18.0351	-44.094	128.665	-5.99921	-71.5426	112.25	16.8298	-80.0981	117.954	-20.5276	-30.1042	107.585	-6.8065	-44.3831	92.2463	18.6063	-48.9249	158.697	-31.0757	4.80456	157.672	-37.5501	36.2178	187.65	-14.4206	13.0083	
46	0.383333	183.884	20.3081	19.6364	163.588	38.0798	-4.72658	138.474	42.7744	-29.4866	118.609	33.9201	-34.2435	182.428	0.772746	-51.8955	174.144	12.5866	-77.687	160.601	32.7986	-96.8703	160.991	-16.2148	-55.2225	152.441	-3.52752	-83.8222	135.06	21.8998	-99.9602	143.778	-20.1924	-44.0134	129.766	-6.52641	-70.8547	115.54	19.3329	-78.1366	116.476	-19.5253	-29.9991	103.946	0.505807	-44.4512	101.65	23.589	-47.8047	152.741	-34.9235	2.40433	156.475	-39.1354	32.1272	184.979	-21.5065	14.0306	
47	0.391667	185.689	14.1488	22.4896	169.623	38.8688	-6.48257	147.468	45.0737	-28.65	123.704	33.0992	-35.877	185.791	-3.24443	-51.0743	176.6	7.84069	-79.5619	171.406	28.1092	-96.6102	159.881	-20.1328	-57.0835	153.027	-5.45813	-86.4269	140.418	22.2789	-103.708	143.43	-22.6355	-44.0642	128.758	-8.86663	-71.7442	119.614	15.9706	-80.074	119.932	-18.4773	-29.8342	111.848	-1.22065	-46.2082	105.735	23.3068	-50.971	153.856	-38.3432	5.77466	158.983	-39.3889	35.9139	186.942	-24.3187	17.4633	
48	0.4	190.538	14.1909	20.959	177.299	39.6772	-4.80991	154.54	46.8818	-29.7519	133.349	43.4601	-37.6959	185.979	-6.13759	-56.9497	186.738	6.34449	-78.101	175.223	22.9274	-96.9323	162.228	-21.2442	-58.2216	158.77	-7.95986	-85.631	146.071	18.9753	-105.633	147.634	-23.8566	-47.1441	135.997	-14.3022	-71.4619	121.197	15.1438	-85.6791	121.941	-20.1973	-28.9175	108.291	-5.01038	-47.1208	107.244	19.326	-54.7727	154.51	-38.0147	6.66363	156.799	-41.8276	32.5443	187.923	-26.5684	15.5991	
49	0.408333	192.73	10.7294	18.983	183.893	37.6918	-8.01297	168.61	52.2074	-26.8889	145.024	50.7491	-40.775	189.117	-7.87171	-53.5956	187.944	6.77692	-82.7522	181.071	24.9697	-101.174	169.678	-20.713	-55.8865	159.023	-8.7059	-88.5937	151.963	15.4819	-106.944	146.241	-25.114	-49.2895	142.111	-15.2462	-74.2376	128.103	9.52637	-92.4187	126.968	-20.7327	-30.6446	111.325	-7.37752	-49.4593	107.676	13.0378	-61.3003	155.702	-38.755	2.44422	158.868	-39.5971	30.6525	188.682	-29.4375	14.8417	
50	0.416667	199.762	9.92651	17.4134	194.533	38.0201	-4.55288	181.264	52.1576	-25.7036	159.632	56.5456	-43.8846	195.864	-10.9794	-55.772	196.097	2.22438	-81.8619	190.265	19.2478	-100.318	172.118	-22.3053	-61.9109	168.693	-10.5111	-86.4112	154.961	12.6237	-108.582	148.458	-26.3496	-49.9472	143.722	-17.1144	-74.5314	131.891	6.18393	-95.0211	127.893	-20.3817	-33.6444	118.972	-8.99274	-53.9445	106.924	11.9105	-63.7159	159.407	-39.1317	-1.52507	159.631	-42.8694	28.4559	188.116	-31.1692	15.2622	
51	0.425	203.088	6.41521	21.7616	197.277	31.2346	-6.29552	185.628	46.9996	-25.7319	166.574	53.3299	-43.813	194.954	-16.1957	-52.4476	195.876	-3.67388	-78.28	195.532	16.0232	-100.167	172.511	-25.7489	-56.6118	170.476	-14.1981	-85.4606	163.869	12.9876	-110.759	148.558	-27.7457	-48.3646	147.202	-15.8199	-78.0403	135.743	5.6122	-95.4354	129.231	-20.5181	-35.6191	117.833	-9.11106	-51.0732	112.724	14.3863	-68.4667	158.323	-41.265	-0.789113	154.85	-44.4884	30.7795	190.564	-35.1393	14.9083	
52	0.433333	202.6	2.9617	20.9053	196.603	29.6982	-5.65196	180.738	40.675	-28.6175	162.724	47.0574	-43.5696	194.371	-17.9212	-54.7539	198.824	-5.10218	-80.2735	190.998	13.4494	-101.361	170.85	-28.9459	-58.378	171.881	-15.9814	-84.4033	161.226	9.53515	-107.464	152.175	-27.8967	-49.9365	146.84	-16.5946	-74.5148	138.255	8.13336	-92.3623	131.378	-20.5249	-33.1715	123.492	-6.24402	-52.7155	119.48	16.6261	-64.5655	155.392	-43.3537	2.79052	158.273	-43.3415	35.2594	187.348	-36.1998	16.5499	
53	0.441667	200.665	1.3627	22.6425	193.321	27.0071	-6.50067	175.37	35.8888	-28.1741	150.152	34.7452	-44.8982	194.767	-21.4013	-49.613	194.733	-10.7561	-75.3189	190.444	7.69271	-95.7867	173.599	-30.2968	-54.5526	168.063	-17.0185	-85.9622	160.808	7.42663	-104.648	150.13	-29.5901	-48.8535	145.596	-17.2872	-72.0841	144.092	12.2881	-87.5163	130.574	-20.1999	-30.7611	123.174	-4.13944	-48.8529	126.201	19.3318	-60.0901	155.9	-44.5483	7.34958	157.546	-44.8881	35.8285	190.917	-39.1183	18.0009	
